<svg width="20" height="20" viewBox="0 0 20 20" fill="none" xmlns="http://www.w3.org/2000/svg">
<g clip-path="url(#clip0_68_1304)">
<path d="M10.625 11.25C12.0057 11.25 13.125 10.1307 13.125 8.75C13.125 7.36929 12.0057 6.25 10.625 6.25C9.24429 6.25 8.125 7.36929 8.125 8.75C8.125 10.1307 9.24429 11.25 10.625 11.25Z" stroke="#191919" stroke-width="1.3" stroke-linecap="round" stroke-linejoin="round"/>
<path d="M2.5 8.4375H4.375" stroke="#191919" stroke-width="1.3" stroke-linecap="round" stroke-linejoin="round"/>
<path d="M2.5 5.3125H4.375" stroke="#191919" stroke-width="1.3" stroke-linecap="round" stroke-linejoin="round"/>
<path d="M2.5 11.5625H4.375" stroke="#191919" stroke-width="1.3" stroke-linecap="round" stroke-linejoin="round"/>
<path d="M2.5 14.6875H4.375" stroke="#191919" stroke-width="1.3" stroke-linecap="round" stroke-linejoin="round"/>
<path d="M6.875 13.125C7.31163 12.5428 7.8778 12.0703 8.52869 11.7449C9.17957 11.4194 9.89729 11.25 10.625 11.25C11.3527 11.25 12.0704 11.4194 12.7213 11.7449C13.3722 12.0703 13.9384 12.5428 14.375 13.125" stroke="#191919" stroke-width="1.3" stroke-linecap="round" stroke-linejoin="round"/>
<path d="M16.875 16.875V3.125C16.875 2.77982 16.5952 2.5 16.25 2.5L5 2.5C4.65482 2.5 4.375 2.77982 4.375 3.125V16.875C4.375 17.2202 4.65482 17.5 5 17.5H16.25C16.5952 17.5 16.875 17.2202 16.875 16.875Z" stroke="#191919" stroke-width="1.3" stroke-linecap="round" stroke-linejoin="round"/>
</g>
<defs>
<clipPath id="clip0_68_1304">
<rect width="20" height="20" fill="white"/>
</clipPath>
</defs>
</svg>
