<svg width="20" height="20" viewBox="0 0 20 20" fill="none" xmlns="http://www.w3.org/2000/svg">
<path d="M1.875 16.875H13.125" stroke="#191919" stroke-width="1.5" stroke-linecap="round" stroke-linejoin="round"/>
<path d="M1.32031 10.9688L4.26562 13.7266C4.65835 14.0947 5.15941 14.3263 5.69429 14.3868C6.22918 14.4473 6.76931 14.3336 7.23437 14.0625L19.0625 7.18752L17.6094 5.40627C17.2314 4.9446 16.7007 4.63336 16.1133 4.52877C15.5258 4.42417 14.9204 4.53313 14.4062 4.83596L10.9375 6.87502L6.25 5.31252L4.96093 5.86721C4.86449 5.90854 4.78001 5.97348 4.71527 6.05605C4.65054 6.13862 4.60763 6.23616 4.5905 6.33968C4.57338 6.4432 4.58259 6.54936 4.61729 6.64838C4.65199 6.7474 4.71106 6.83609 4.78906 6.90627L7.1875 9.06252L5 10.3125L2.8125 9.37502L1.5 9.93752C1.40451 9.97854 1.32075 10.0427 1.25632 10.1243C1.19188 10.2058 1.14879 10.3021 1.13095 10.4045C1.11311 10.5069 1.12108 10.6121 1.15415 10.7106C1.18721 10.8091 1.24432 10.8979 1.32031 10.9688V10.9688Z" stroke="#191919" stroke-width="1.5" stroke-linecap="round" stroke-linejoin="round"/>
</svg>
