<svg width="24" height="24" viewBox="0 0 24 24" fill="none" xmlns="http://www.w3.org/2000/svg">
<path d="M6.75 20.25H20.25" stroke="#191919" stroke-width="1.5" stroke-linecap="round" stroke-linejoin="round"/>
<path d="M2.5125 7.5H4.125L6 9.75H9L7.82812 6.23438C7.79106 6.12172 7.78125 6.00188 7.79948 5.8847C7.81771 5.76751 7.86347 5.65632 7.93301 5.56025C8.00255 5.46418 8.09388 5.38597 8.1995 5.33204C8.30512 5.2781 8.42203 5.24999 8.54062 5.25H10.125L14.25 9.75H19.5C20.2956 9.75 21.0587 10.0661 21.6213 10.6287C22.1839 11.1913 22.5 11.9544 22.5 12.75V15H5.98125C5.33694 14.999 4.71006 14.7906 4.1934 14.4057C3.67673 14.0207 3.29774 13.4796 3.1125 12.8625L1.79062 8.46563C1.75692 8.35335 1.75 8.23473 1.77043 8.11929C1.79086 8.00386 1.83807 7.89482 1.90826 7.80093C1.97845 7.70703 2.06967 7.6309 2.17461 7.57864C2.27955 7.52638 2.39527 7.49945 2.5125 7.5V7.5Z" stroke="#191919" stroke-width="1.5" stroke-linecap="round" stroke-linejoin="round"/>
</svg>
