<svg width="100" height="60" viewBox="0 0 100 60" fill="none" xmlns="http://www.w3.org/2000/svg">
<path d="M5.87374 37.9095L20.69 52.2375C22.6656 54.1502 25.1862 55.3532 27.8769 55.6676C30.5677 55.9821 33.2848 55.3912 35.6242 53.9828L95.1252 18.2644L87.8153 9.01012C85.9138 6.61158 83.2444 4.99453 80.2893 4.45114C77.3342 3.90774 74.2884 4.47382 71.7021 6.04712L54.2527 16.6409L30.6724 8.52305L24.1878 11.4049C23.7027 11.6196 23.2777 11.957 22.952 12.386C22.6263 12.815 22.4105 13.3217 22.3244 13.8596C22.2382 14.3974 22.2846 14.9489 22.4591 15.4634C22.6337 15.9778 22.9308 16.4386 23.3232 16.8032L35.3884 28.0058L24.3843 34.5001L13.3801 29.6294L6.77766 32.5518C6.2973 32.7649 5.87598 33.0983 5.55183 33.522C5.22768 33.9456 5.01092 34.446 4.92118 34.9779C4.83144 35.5098 4.87154 36.0565 5.03787 36.5684C5.20419 37.0802 5.49149 37.5412 5.87374 37.9095V37.9095Z" stroke="white" stroke-width="8.35135" stroke-linecap="round" stroke-linejoin="round"/>
</svg>
