<svg width="24" height="24" viewBox="0 0 24 24" fill="none" xmlns="http://www.w3.org/2000/svg">
<path d="M3.9375 6.75H20.0625" stroke="#191919" stroke-width="1.5" stroke-linecap="round" stroke-linejoin="round"/>
<path d="M3.9375 11.25H20.0625" stroke="#191919" stroke-width="1.5" stroke-linecap="round" stroke-linejoin="round"/>
<path d="M20.0625 18H3.9375V6.00002C3.93626 5.7042 3.99361 5.41106 4.10624 5.13752C4.21888 4.86397 4.38456 4.61544 4.59374 4.40626C4.80292 4.19708 5.05145 4.0314 5.32499 3.91876C5.59854 3.80613 5.89168 3.74878 6.1875 3.75002H17.8125C18.1083 3.74878 18.4015 3.80613 18.675 3.91876C18.9485 4.0314 19.1971 4.19708 19.4063 4.40626C19.6154 4.61544 19.7811 4.86397 19.8938 5.13752C20.0064 5.41106 20.0637 5.7042 20.0625 6.00002V18Z" stroke="#191919" stroke-width="1.5" stroke-linecap="round" stroke-linejoin="round"/>
<path d="M20.0625 18V20.25C20.0625 20.4489 19.9835 20.6397 19.8428 20.7803C19.7022 20.921 19.5114 21 19.3125 21H17.0625C16.8636 21 16.6728 20.921 16.5322 20.7803C16.3915 20.6397 16.3125 20.4489 16.3125 20.25V18" stroke="#191919" stroke-width="1.5" stroke-linecap="round" stroke-linejoin="round"/>
<path d="M7.6875 18V20.25C7.6875 20.4489 7.60848 20.6397 7.46783 20.7803C7.32718 20.921 7.13641 21 6.9375 21H4.6875C4.48859 21 4.29782 20.921 4.15717 20.7803C4.01652 20.6397 3.9375 20.4489 3.9375 20.25V18" stroke="#191919" stroke-width="1.5" stroke-linecap="round" stroke-linejoin="round"/>
<path d="M7.875 15.75C8.49632 15.75 9 15.2463 9 14.625C9 14.0037 8.49632 13.5 7.875 13.5C7.25368 13.5 6.75 14.0037 6.75 14.625C6.75 15.2463 7.25368 15.75 7.875 15.75Z" fill="#191919"/>
<path d="M16.125 15.75C16.7463 15.75 17.25 15.2463 17.25 14.625C17.25 14.0037 16.7463 13.5 16.125 13.5C15.5037 13.5 15 14.0037 15 14.625C15 15.2463 15.5037 15.75 16.125 15.75Z" fill="#191919"/>
</svg>
