<svg width="24" height="24" viewBox="0 0 24 24" fill="none" xmlns="http://www.w3.org/2000/svg">
<path d="M9.88 9.88C9.58525 10.1547 9.34884 10.4859 9.18487 10.8539C9.02091 11.2218 8.93274 11.6191 8.92563 12.0219C8.91852 12.4247 8.99262 12.8248 9.14351 13.1984C9.29439 13.5719 9.51897 13.9113 9.80384 14.1962C10.0887 14.481 10.4281 14.7056 10.8016 14.8565C11.1752 15.0074 11.5753 15.0815 11.9781 15.0744C12.3809 15.0673 12.7782 14.9791 13.1461 14.8151C13.5141 14.6512 13.8453 14.4148 14.12 14.12" stroke="#999DA3" stroke-width="2" stroke-linecap="round" stroke-linejoin="round"/>
<path d="M10.73 5.08C11.1513 5.02751 11.5754 5.00079 12 5C19 5 22 12 22 12C21.5529 12.9571 20.9922 13.8569 20.33 14.68" stroke="#999DA3" stroke-width="2" stroke-linecap="round" stroke-linejoin="round"/>
<path d="M6.61 6.60999C4.62125 7.96461 3.02987 9.82524 2 12C2 12 5 19 12 19C13.9159 19.0051 15.7908 18.4451 17.39 17.39" stroke="#999DA3" stroke-width="2" stroke-linecap="round" stroke-linejoin="round"/>
<path d="M2 2L22 22" stroke="#999DA3" stroke-width="2" stroke-linecap="round" stroke-linejoin="round"/>
</svg>
