<svg width="24" height="24" viewBox="0 0 24 24" fill="none" xmlns="http://www.w3.org/2000/svg">
<g clip-path="url(#clip0_801_3427)">
<path d="M3.09783 5.5H20.8986C21.5036 5.5 21.9964 5.96042 21.9964 6.52578V17.4708C21.9964 18.0362 21.5036 18.4966 20.8986 18.4966H3.09783C2.49275 18.5 2 18.0396 2 17.4742V6.52578C2 5.96042 2.49275 5.5 3.09783 5.5Z" fill="#B22234"/>
<path d="M2.00725 6.42419H21.9964C22 6.45805 22.0036 6.4919 22.0036 6.52914V7.52445H2V6.52576C2 6.4919 2.00362 6.45805 2.00725 6.42419ZM22 8.43513V9.53201H2V8.43513H22ZM22 10.4461V11.5429H2V10.4461H22ZM22 12.457V13.5539H2V12.457H22ZM22 14.4679V15.5648H2V14.4679H22ZM22 16.4789V17.4708C22 17.5047 21.9964 17.5419 21.9928 17.5758H2.00725C2.00362 17.5453 2 17.508 2 17.4742V16.4823H22V16.4789Z" fill="white"/>
<path d="M9.53623 5.5V12.501H2V6.52578C2 5.96042 2.49275 5.5 3.09783 5.5H9.53623Z" fill="#3C3B6E"/>
<path d="M2.44565 6.4682L2.69565 7.19607L2.03623 6.7458H2.85507L2.19203 7.19607L2.44565 6.4682Z" fill="white"/>
<path d="M2.44565 7.87659L2.69565 8.60445L2.03623 8.15419H2.85507L2.19203 8.60445L2.44565 7.87659Z" fill="white"/>
<path d="M2.44565 9.28491L2.69565 10.0128L2.03623 9.56252H2.85507L2.19203 10.0128L2.44565 9.28491Z" fill="white"/>
<path d="M2.44565 10.6932L2.69565 11.4211L2.03623 10.9708H2.85507L2.19203 11.4211L2.44565 10.6932Z" fill="white"/>
<path d="M3.32971 5.76404L3.58333 6.4919L2.92029 6.04164H3.74275L3.07609 6.4919L3.32971 5.76404Z" fill="white"/>
<path d="M3.32971 7.17242L3.58333 7.90029L2.92029 7.45003H3.74275L3.07609 7.90029L3.32971 7.17242Z" fill="white"/>
<path d="M3.32971 8.58075L3.58333 9.30861L2.92029 8.85835H3.74275L3.07609 9.30861L3.32971 8.58075Z" fill="white"/>
<path d="M3.32971 9.98907L3.58333 10.7169L2.92029 10.2667H3.74275L3.07609 10.7169L3.32971 9.98907Z" fill="white"/>
<path d="M3.32971 11.3974L3.58333 12.1253L2.92029 11.675H3.74275L3.07609 12.1253L3.32971 11.3974Z" fill="white"/>
<path d="M4.21739 6.4682L4.47101 7.19607L3.80797 6.7458H4.62681L3.96377 7.19607L4.21739 6.4682Z" fill="white"/>
<path d="M4.21739 7.87659L4.47101 8.60445L3.80797 8.15419H4.62681L3.96377 8.60445L4.21739 7.87659Z" fill="white"/>
<path d="M4.21739 9.28491L4.47101 10.0128L3.80797 9.56252H4.62681L3.96377 10.0128L4.21739 9.28491Z" fill="white"/>
<path d="M4.21739 10.6932L4.47101 11.4211L3.80797 10.9708H4.62681L3.96377 11.4211L4.21739 10.6932Z" fill="white"/>
<path d="M5.10507 5.76404L5.35507 6.4919L4.69565 6.04164H5.51449L4.85145 6.4919L5.10507 5.76404Z" fill="white"/>
<path d="M5.10507 7.17242L5.35507 7.90029L4.69565 7.45003H5.51449L4.85145 7.90029L5.10507 7.17242Z" fill="white"/>
<path d="M5.10507 8.58075L5.35507 9.30861L4.69565 8.85835H5.51449L4.85145 9.30861L5.10507 8.58075Z" fill="white"/>
<path d="M5.10507 9.98907L5.35507 10.7169L4.69565 10.2667H5.51449L4.85145 10.7169L5.10507 9.98907Z" fill="white"/>
<path d="M5.10507 11.3974L5.35507 12.1253L4.69565 11.675H5.51449L4.85145 12.1253L5.10507 11.3974Z" fill="white"/>
<path d="M5.98913 6.4682L6.24276 7.19607L5.57971 6.7458H6.39855L5.73551 7.19607L5.98913 6.4682Z" fill="white"/>
<path d="M5.98913 7.87659L6.24276 8.60445L5.57971 8.15419H6.39855L5.73551 8.60445L5.98913 7.87659Z" fill="white"/>
<path d="M5.98913 9.28491L6.24276 10.0128L5.57971 9.56252H6.39855L5.73551 10.0128L5.98913 9.28491Z" fill="white"/>
<path d="M5.98913 10.6932L6.24276 11.4211L5.57971 10.9708H6.39855L5.73551 11.4211L5.98913 10.6932Z" fill="white"/>
<path d="M6.87681 5.76404L7.13044 6.4919L6.46739 6.04164H7.28623L6.62319 6.4919L6.87681 5.76404Z" fill="white"/>
<path d="M6.87681 7.17242L7.13044 7.90029L6.46739 7.45003H7.28623L6.62319 7.90029L6.87681 7.17242Z" fill="white"/>
<path d="M6.87681 8.58075L7.13044 9.30861L6.46739 8.85835H7.28623L6.62319 9.30861L6.87681 8.58075Z" fill="white"/>
<path d="M6.87681 9.98907L7.13044 10.7169L6.46739 10.2667H7.28623L6.62319 10.7169L6.87681 9.98907Z" fill="white"/>
<path d="M6.87681 11.3974L7.13044 12.1253L6.46739 11.675H7.28623L6.62319 12.1253L6.87681 11.3974Z" fill="white"/>
<path d="M7.76087 6.4682L8.01449 7.19607L7.35145 6.7458H8.17029L7.51087 7.19607L7.76087 6.4682Z" fill="white"/>
<path d="M7.76087 7.87659L8.01449 8.60445L7.35145 8.15419H8.17029L7.51087 8.60445L7.76087 7.87659Z" fill="white"/>
<path d="M7.76087 9.28491L8.01449 10.0128L7.35145 9.56252H8.17029L7.51087 10.0128L7.76087 9.28491Z" fill="white"/>
<path d="M7.76087 10.6932L8.01449 11.4211L7.35145 10.9708H8.17029L7.51087 11.4211L7.76087 10.6932Z" fill="white"/>
<path d="M8.64855 5.76404L8.90217 6.4919L8.23913 6.04164H9.05797L8.39493 6.4919L8.64855 5.76404Z" fill="white"/>
<path d="M8.64855 7.17242L8.90217 7.90029L8.23913 7.45003H9.05797L8.39493 7.90029L8.64855 7.17242Z" fill="white"/>
<path d="M8.64855 8.58075L8.90217 9.30861L8.23913 8.85835H9.05797L8.39493 9.30861L8.64855 8.58075Z" fill="white"/>
<path d="M8.64855 9.98907L8.90217 10.7169L8.23913 10.2667H9.05797L8.39493 10.7169L8.64855 9.98907Z" fill="white"/>
<path d="M8.64855 11.3974L8.90217 12.1253L8.23913 11.675H9.05797L8.39493 12.1253L8.64855 11.3974Z" fill="white"/>
</g>
<defs>
<clipPath id="clip0_801_3427">
<rect width="20" height="13" fill="white" transform="translate(2 5.5)"/>
</clipPath>
</defs>
</svg>
