<svg width="24" height="24" viewBox="0 0 24 24" fill="none" xmlns="http://www.w3.org/2000/svg">
<path d="M9 5.25V18.75" stroke="#191919" stroke-width="1.5" stroke-linecap="round" stroke-linejoin="round"/>
<path d="M2.25 15.675C2.24904 15.5023 2.30849 15.3346 2.41805 15.2011C2.52762 15.0676 2.68041 14.9765 2.85 14.9437C3.52455 14.8005 4.12944 14.43 4.56347 13.8941C4.9975 13.3583 5.23433 12.6896 5.23433 12C5.23433 11.3104 4.9975 10.6417 4.56347 10.1059C4.12944 9.57002 3.52455 9.19948 2.85 9.05625C2.68041 9.02346 2.52762 8.93242 2.41805 8.79889C2.30849 8.66535 2.24904 8.49773 2.25 8.325V6C2.25 5.80109 2.32901 5.61032 2.46967 5.46967C2.61032 5.32902 2.80108 5.25 3 5.25H21C21.1989 5.25 21.3897 5.32902 21.5303 5.46967C21.671 5.61032 21.75 5.80109 21.75 6V8.325C21.751 8.49773 21.6915 8.66535 21.5819 8.79889C21.4724 8.93242 21.3196 9.02346 21.15 9.05625C20.4754 9.19948 19.8705 9.57002 19.4365 10.1059C19.0025 10.6417 18.7657 11.3104 18.7657 12C18.7657 12.6896 19.0025 13.3583 19.4365 13.8941C19.8705 14.43 20.4754 14.8005 21.15 14.9437C21.3196 14.9765 21.4724 15.0676 21.5819 15.2011C21.6915 15.3346 21.751 15.5023 21.75 15.675V18C21.75 18.1989 21.671 18.3897 21.5303 18.5303C21.3897 18.671 21.1989 18.75 21 18.75H3C2.80108 18.75 2.61032 18.671 2.46967 18.5303C2.32901 18.3897 2.25 18.1989 2.25 18V15.675Z" stroke="#191919" stroke-width="1.5" stroke-linecap="round" stroke-linejoin="round"/>
</svg>
